HIERARCHY
ROOT Hips
{
	OFFSET 0.00000 0.00000 0.00000
	CHANNELS 6 Xposition Yposition Zposition Zrotation Yrotation Xrotation 
	JOINT LHipJoint
	{
		OFFSET 0 0 0
		CHANNELS 3 Zrotation Yrotation Xrotation
		JOINT LeftUpLeg
		{
			OFFSET 1.44960 -1.75505 0.85172
			CHANNELS 3 Zrotation Yrotation Xrotation
			JOINT LeftLeg
			{
				OFFSET 2.40573 -6.60971 0.00000
				CHANNELS 3 Zrotation Yrotation Xrotation
				JOINT LeftFoot
				{
					OFFSET 2.58773 -7.10974 0.00000
					CHANNELS 3 Zrotation Yrotation Xrotation
					JOINT LeftToeBase
					{
						OFFSET 0.18252 -0.50147 1.77316
						CHANNELS 3 Zrotation Yrotation Xrotation
						End Site
						{
							OFFSET 0.00000 -0.00000 0.92990
						}
					}
				}
			}
		}
	}
	JOINT RHipJoint
	{
		OFFSET 0 0 0
		CHANNELS 3 Zrotation Yrotation Xrotation
		JOINT RightUpLeg
		{
			OFFSET -1.40744 -1.75505 0.85172
			CHANNELS 3 Zrotation Yrotation Xrotation
			JOINT RightLeg
			{
				OFFSET -2.43714 -6.69600 0.00000
				CHANNELS 3 Zrotation Yrotation Xrotation
				JOINT RightFoot
				{
					OFFSET -2.51650 -6.91404 0.00000
					CHANNELS 3 Zrotation Yrotation Xrotation
					JOINT RightToeBase
					{
						OFFSET -0.25383 -0.69740 1.96384
						CHANNELS 3 Zrotation Yrotation Xrotation
						End Site
						{
							OFFSET -0.00000 -0.00000 1.04244
						}
					}
				}
			}
		}
	}
	JOINT LowerBack
	{
		OFFSET 0 0 0
		CHANNELS 3 Zrotation Yrotation Xrotation
		JOINT Spine
		{
			OFFSET 0.00579 2.14458 -0.24367
			CHANNELS 3 Zrotation Yrotation Xrotation
			JOINT Spine1
			{
				OFFSET 0.05899 2.16316 -0.04515
				CHANNELS 3 Zrotation Yrotation Xrotation
				JOINT Neck
				{
					OFFSET 0 0 0
					CHANNELS 3 Zrotation Yrotation Xrotation
					JOINT Neck1
					{
						OFFSET -0.01650 1.59577 0.24841
						CHANNELS 3 Zrotation Yrotation Xrotation
						JOINT Head
						{
							OFFSET -0.01016 1.63072 -0.17782
							CHANNELS 3 Zrotation Yrotation Xrotation
							End Site
							{
								OFFSET -0.00250 1.64111 -0.08717
							}
						}
					}
				}
				JOINT LeftShoulder
				{
					OFFSET 0 0 0
					CHANNELS 3 Zrotation Yrotation Xrotation
					JOINT LeftArm
					{
						OFFSET 3.17745 0.95174 -0.45729
						CHANNELS 3 Zrotation Yrotation Xrotation
						JOINT LeftForeArm
						{
							OFFSET 4.93485 -0.00000 0.00000
							CHANNELS 3 Zrotation Yrotation Xrotation
							JOINT LeftHand
							{
								OFFSET 3.41719 -0.00000 -0.00000
								CHANNELS 3 Zrotation Yrotation Xrotation
								JOINT LeftFingerBase
								{
									OFFSET 0 0 0
									CHANNELS 3 Zrotation Yrotation Xrotation
									JOINT LeftHandIndex1
									{
										OFFSET 0.62410 -0.00000 -0.00000
										CHANNELS 3 Zrotation Yrotation Xrotation
										End Site
										{
											OFFSET 0.50317 -0.00000 -0.00000
										}
									}
								}
								JOINT LThumb
								{
									OFFSET 0 0 0
									CHANNELS 3 Zrotation Yrotation Xrotation
									End Site
									{
										OFFSET 0.51085 -0.00000 0.51085
									}
								}
							}
						}
					}
				}
				JOINT RightShoulder
				{
					OFFSET 0 0 0
					CHANNELS 3 Zrotation Yrotation Xrotation
					JOINT RightArm
					{
						OFFSET -2.87924 1.13038 -0.75204
						CHANNELS 3 Zrotation Yrotation Xrotation
						JOINT RightForeArm
						{
							OFFSET -5.22034 -0.00000 0.00000
							CHANNELS 3 Zrotation Yrotation Xrotation
							JOINT RightHand
							{
								OFFSET -3.41809 -0.00000 -0.00000
								CHANNELS 3 Zrotation Yrotation Xrotation
								JOINT RightFingerBase
								{
									OFFSET 0 0 0
									CHANNELS 3 Zrotation Yrotation Xrotation
									JOINT RightHandIndex1
									{
										OFFSET -0.77534 -0.00000 -0.00000
										CHANNELS 3 Zrotation Yrotation Xrotation
										End Site
										{
											OFFSET -0.62510 -0.00000 -0.00000
										}
									}
								}
								JOINT RThumb
								{
									OFFSET 0 0 0
									CHANNELS 3 Zrotation Yrotation Xrotation
									End Site
									{
										OFFSET -0.63464 -0.00000 0.63464
									}
								}
							}
						}
					}
				}
			}
		}
	}
}
MOTION
Frames: 14
Frame Time: 0.142857
0.00 0.00 0.00 0 0 0 0 0 0 -21 0 0 0 0 0 0 0 0 0 0 0 0 0 0 21 0 0 0 0 0 0 0 0 0 0 0 0 0 0 0 0 0 0 0 0 0 0 -16 0 0 21 0 0 11 0 0 0 -8 0 0 0 0 0 0 0 0 0 0 0 0 0 0 0 0 0 0 0 0 8 0 0 0 0 0 0 0 0 0 0 0 0 0 0 0 0 0
0.00 0.00 0.00 3.3927 -8.6598 11.0495 0.0000 0.0000 0.0000 -20.1277 -8.9085 -22.0210 1.6015 7.9814 22.6575 0.3758 3.5853 -13.4600 0.1344 2.3630 6.5100 0.0000 0.0000 0.0000 11.2873 10.7106 -27.3011 -2.3897 -9.6346 27.8013 -0.4127 -0.2670 -12.2350 -0.2671 -3.3243 9.1831 9.6374 -1.5065 33.8666 18.0645 2.1914 12.7122 13.7880 0.6472 -3.9349 -9.4405 -12.7731 -9.1201 3.5603 -16.5762 18.4280 0.9151 -8.0834 8.3100 0.0000 -0.0000 0.0000 -96.8754 -2.7973 49.1759 48.0603 -52.1826 -24.6334 -0.0000 0.0000 -5.6447 12.0346 40.1528 7.8274 -7.1250 0.0000 -0.0000 -33.0758 68.0303 -19.0934 0.0000 -0.0000 0.0000 48.2661 34.6070 3.1207 -15.3503 24.6318 -3.3706 0.0000 -0.0000 -2.8274 -39.5665 25.7113 -19.7214 7.1250 -0.0000 -0.0000 -5.7683 1.8660 -5.9831
0.00 0.00 0.00 2.1115 -13.1771 6.5152 0.0000 0.0000 0.0000 -15.3114 -6.3991 -21.7343 4.2979 12.5467 37.6943 0.3283 0.9214 -11.1973 0.0927 -1.9635 -5.4047 0.0000 0.0000 0.0000 17.2237 12.0168 -17.2324 -2.1882 -9.2475 26.5726 -0.6084 2.0600 -14.1727 -0.6187 -5.0339 14.0053 11.9183 -2.6806 35.4117 12.8174 1.7395 10.0128 6.8598 0.5076 -6.7742 -6.3056 -7.6307 -9.7560 -3.8924 -8.8113 13.7735 -0.9211 -4.8804 5.8941 0.0000 0.0000 0.0000 -91.5854 2.2356 45.5332 40.7666 -48.5176 -19.0116 -0.0000 0.0000 -5.6085 10.8249 39.9271 6.9964 -7.1250 0.0000 -0.0000 -34.0154 67.4796 -19.2696 0.0000 0.0000 0.0000 54.2524 18.3708 21.4863 -16.1460 25.7181 -3.7091 0.0000 -0.0000 -13.4781 -20.3998 15.7925 -5.7794 7.1250 -0.0000 -0.0000 4.8821 -13.2331 3.6484
0.00 0.00 0.00 -1.9516 -11.9187 4.4672 0.0000 0.0000 0.0000 -11.0553 -6.7612 -24.7465 8.2898 16.3283 53.5998 -0.0825 6.0499 -5.6955 1.2346 7.0462 19.8525 0.0000 0.0000 0.0000 24.7251 8.3685 -6.4048 -1.2837 -7.1797 20.2489 -0.7467 0.3596 -16.2120 -0.8462 -5.8671 16.3993 10.1509 -2.0136 26.3623 9.0860 0.7831 6.6263 4.1187 0.2151 -7.1849 -4.4003 -4.8236 -10.7901 -5.8166 -5.0205 12.2729 -1.5044 -3.0750 5.4532 -0.0000 0.0000 0.0000 -90.3644 5.8484 39.1786 30.4358 -41.2640 -11.6960 -0.0000 0.0000 -2.6232 8.7039 39.7333 5.5890 -7.1250 0.0000 -0.0000 -35.9412 66.6901 -19.8406 -0.0000 0.0000 0.0000 70.6264 2.8798 18.8935 -14.1721 22.9802 -2.8950 0.0000 -0.0000 -9.7172 -23.6096 17.9379 -7.6669 7.1250 -0.0000 -0.0000 2.8935 -10.5413 2.3184
0.00 0.00 0.00 -3.6299 -2.4680 5.1158 0.0000 0.0000 0.0000 -11.5883 -10.2535 -32.3108 4.1300 12.3314 36.9148 0.3610 -2.5453 -10.7563 0.0257 1.0340 2.8425 0.0000 0.0000 0.0000 29.3604 1.3761 5.3851 -0.3564 -3.8352 10.6134 -0.8609 -5.2659 -20.2030 -0.3667 -3.8898 10.7669 7.6101 0.3733 15.4140 4.5865 2.1016 1.7501 0.1611 0.8736 -6.6925 -4.1309 -3.1771 -14.6026 -5.4924 -2.7640 9.0916 -1.2955 -1.8923 5.1106 -0.0000 -0.0000 0.0000 -89.3063 8.5313 24.3895 20.1424 -30.8136 -5.6041 -0.0000 0.0000 -0.8122 8.1769 39.4313 5.2147 -7.1250 0.0000 -0.0000 -36.0347 66.2985 -19.5822 -0.0000 -0.0000 0.0000 82.2218 -1.6529 -20.8977 -4.9809 8.5522 -0.3727 0.0000 0.0000 16.5549 -22.9816 13.4618 -5.6384 7.1250 -0.0000 -0.0000 3.0091 -15.4188 2.1037
0.00 0.00 0.00 0.4175 0.0028 4.9258 0.0000 0.0000 0.0000 -23.1071 -7.4597 -20.4040 1.3428 7.3367 20.7169 -0.3004 -13.6956 -5.3597 1.4333 7.5696 21.4143 0.0000 0.0000 0.0000 21.1669 -0.6988 2.3925 -4.7909 -13.1444 39.9114 0.3099 -11.4064 2.0305 -0.0571 -1.5417 4.2406 -2.3187 2.2398 7.0041 -0.1129 2.7770 -1.1615 0.8640 1.4397 -5.2424 -3.6972 -2.5781 -18.8219 -2.3456 -2.0939 13.1978 -0.4125 -1.4185 7.1470 0.0000 0.0000 0.0000 -87.4975 9.2783 9.5734 12.2805 -20.2239 -2.1983 -0.0000 -0.0000 13.2406 3.4203 40.0766 2.2036 -7.1250 0.0000 -0.0000 -41.7686 65.4071 -22.3102 0.0000 0.0000 0.0000 84.3636 1.9953 -18.8370 -5.7962 9.9219 -0.5035 0.0000 0.0000 4.6188 -19.5400 17.4673 -6.0807 7.1250 -0.0000 -0.0000 5.5401 -11.5818 4.3358
0.00 0.00 0.00 3.2586 1.2211 2.8753 0.0000 0.0000 0.0000 -27.8731 -4.3595 -14.1386 0.9558 6.2254 17.4399 -0.3581 -15.3368 -6.3015 1.1471 6.8008 19.1264 0.0000 0.0000 0.0000 16.3839 -0.1282 -5.8948 -9.2034 -16.9369 56.7911 0.2204 -9.7648 1.9326 -0.2703 -3.3445 9.2393 -6.3316 1.8882 7.6930 -0.5959 1.8794 -1.0052 2.6975 1.1128 -5.5660 -4.3307 -2.9264 -17.9906 -1.2394 -2.6312 13.6194 -0.0030 -1.6084 7.1714 -0.0000 0.0000 0.0000 -87.2814 6.3166 13.2696 13.0922 -21.4222 -2.4869 -0.0000 -0.0000 10.7219 3.7144 40.5050 2.4145 -7.1250 0.0000 -0.0000 -42.1363 65.8049 -22.9132 -0.0000 0.0000 0.0000 82.9826 3.2113 -12.9636 -7.3062 12.4220 -0.7962 0.0000 -0.0000 -2.9851 -17.4893 18.1725 -5.6125 7.1250 -0.0000 -0.0000 6.9233 -11.0955 5.5029
0.00 0.00 0.00 4.1333 7.0654 -0.3537 0.0000 0.0000 0.0000 -30.4338 -3.7211 -5.7713 1.3748 7.4201 20.9661 0.1351 -16.8863 -13.1554 0.4790 4.4385 12.3137 0.0000 0.0000 0.0000 12.2432 3.0361 -22.3180 -11.2781 -18.0685 63.6813 -0.3978 -4.2108 -14.2125 -0.1782 -2.7194 7.4986 -7.5319 -0.5049 9.6893 -0.9387 -1.6222 -0.9486 3.4893 -0.5522 -6.2793 -3.5460 -1.9233 -17.8322 -0.9824 -1.4680 17.5823 0.0691 -1.0380 8.4404 0.0000 0.0000 0.0000 -85.9348 -5.6962 19.7379 13.2235 -21.6138 -2.5350 -0.0000 -0.0000 9.6048 9.7353 42.6065 6.6249 -7.1250 0.0000 -0.0000 -39.7064 69.1844 -24.3384 0.0000 0.0000 0.0000 82.4308 4.6980 -4.8548 -10.4311 17.4110 -1.6015 0.0000 -0.0000 -11.4841 -11.7854 21.9087 -4.4516 7.1250 -0.0000 -0.0000 10.7153 -7.9613 9.2963
0.00 0.00 0.00 4.3654 9.2875 -0.5801 0.0000 0.0000 0.0000 -30.9443 -3.5677 -1.0240 1.3186 7.2729 20.5264 0.3490 -16.6984 -14.9444 0.5330 4.6783 12.9934 0.0000 0.0000 0.0000 10.2026 5.7800 -27.4606 -6.6410 -15.0219 47.5030 -0.6413 -5.6520 -18.2329 -0.0746 -1.7615 4.8470 -7.9628 -1.2639 10.1826 -0.6318 -2.7134 -0.9937 4.2291 -1.0573 -6.4493 -2.7484 -1.5321 -18.2271 -1.8169 -0.9458 18.0154 -0.2837 -0.8337 8.6422 -0.0000 0.0000 0.0000 -85.6494 -9.5027 29.8097 16.9017 -26.7280 -4.0430 -0.0000 -0.0000 2.7251 10.7308 42.8662 7.3461 -7.1250 0.0000 -0.0000 -39.1806 69.6981 -24.4105 -0.0000 0.0000 0.0000 83.5082 4.5814 -3.7825 -12.6544 20.7787 -2.3292 0.0000 -0.0000 -12.0615 -10.7362 24.8534 -4.5563 7.1250 -0.0000 -0.0000 11.4539 -5.1603 10.5959
0.00 0.00 0.00 5.2324 10.1664 3.2690 0.0000 0.0000 0.0000 -31.7541 -0.0491 10.5713 0.1695 2.6523 7.3122 0.3040 -12.8185 -12.5187 0.9227 6.1197 17.1320 0.0000 0.0000 0.0000 7.5167 10.7483 -29.5936 -0.6403 -5.1194 14.2495 -0.3584 -11.6025 -20.7547 -0.1247 2.2764 -6.2702 -6.9381 -3.0074 8.4552 -0.7469 -4.8405 -2.2878 3.7596 -2.1043 -6.6588 -2.4313 -0.1634 -16.9184 -0.1769 0.4370 16.6805 0.3910 0.0328 7.9457 0.0000 -0.0000 0.0000 -84.2731 -9.1241 39.0908 22.9273 -34.0092 -7.0976 -0.0000 -0.0000 1.6112 6.3961 38.7683 4.0152 -7.1250 0.0000 -0.0000 -36.9011 65.2674 -19.2506 0.0000 -0.0000 0.0000 85.4851 3.6052 0.7346 -15.8180 25.2733 -3.5679 0.0000 -0.0000 -12.3361 -10.2389 27.3116 -4.7377 7.1250 -0.0000 -0.0000 11.8505 -2.7974 11.5105
0.00 0.00 0.00 0.4277 8.6852 5.5002 0.0000 0.0000 0.0000 -25.2223 -2.9130 9.6413 1.8889 8.6306 24.6465 -0.3890 -11.1776 1.8507 0.0915 1.9507 5.3693 0.0000 0.0000 0.0000 19.7790 6.7754 -23.5073 -0.8768 -5.9698 16.6967 0.1715 -8.5899 -7.9332 -0.5007 -4.5364 12.5909 -2.2090 -3.3298 7.0954 1.4601 -4.5802 -2.6999 3.3337 -2.1295 -6.5089 -1.1754 0.4990 -19.0087 -1.9761 1.5114 19.9630 -0.2855 0.3821 9.4546 0.0000 -0.0000 0.0000 -87.5677 -5.1038 16.9211 12.2684 -20.2060 -2.1941 -0.0000 -0.0000 15.5566 5.6414 41.1088 3.7160 -7.1250 0.0000 -0.0000 -41.2029 66.8150 -23.2509 0.0000 -0.0000 0.0000 85.6569 1.7362 -8.4440 -10.1555 16.9824 -1.5200 0.0000 -0.0000 -4.0807 -9.3355 25.8558 -4.1007 7.1250 -0.0000 -0.0000 12.3330 -4.3327 11.6444
0.00 0.00 0.00 -2.7418 7.6706 4.9881 0.0000 0.0000 0.0000 -19.4555 -3.9210 1.1227 5.1831 13.5870 41.6077 0.1301 -11.3969 17.9436 0.6875 5.3010 14.7692 0.0000 0.0000 0.0000 25.7231 4.8011 -17.9346 -0.7351 -5.4775 15.2758 0.0489 -5.9067 -6.8541 -1.5317 -7.8136 22.1495 -0.4301 -2.6711 7.4537 2.8066 -3.4347 -2.6753 3.6381 -1.6041 -6.7887 -1.6656 0.2934 -18.2242 -1.5809 1.2705 20.5083 -0.1016 0.2755 9.4952 -0.0000 -0.0000 0.0000 -86.6986 -0.3218 15.6940 12.4823 -20.5240 -2.2686 -0.0000 -0.0000 14.1476 3.1348 42.0982 2.1028 -7.1250 0.0000 -0.0000 -45.2872 66.7619 -25.8814 -0.0000 -0.0000 0.0000 86.6751 -0.6242 -13.8836 -8.5086 14.3739 -1.0749 0.0000 0.0000 0.9097 -10.5791 23.3746 -4.2378 7.1250 -0.0000 -0.0000 11.5048 -6.6387 10.3129
0.00 0.00 0.00 -5.0867 8.0858 4.0989 0.0000 0.0000 0.0000 -14.5700 -5.6521 -8.3054 9.6585 17.2133 58.3406 -0.3216 -11.2181 9.5698 1.7733 8.3770 23.8651 0.0000 0.0000 0.0000 29.7328 3.2041 -13.0304 -0.6441 -5.1342 14.2917 -0.0533 -5.5379 -9.3294 -1.3843 -7.4445 21.0390 1.3838 -2.1287 8.0648 3.6865 -2.4664 -1.8776 3.4212 -1.1896 -6.3938 -1.9832 -0.0949 -18.3448 -2.1484 0.9611 20.3627 -0.2867 0.0433 9.4713 -0.0000 0.0000 0.0000 -85.8594 2.1713 16.2971 14.3663 -23.2559 -2.9712 -0.0000 -0.0000 11.4530 0.9680 40.4984 0.6287 -7.1250 0.0000 -0.0000 -44.7716 65.0083 -23.8012 -0.0000 0.0000 0.0000 87.0900 -1.8150 -20.2732 -6.8837 11.7277 -0.7078 0.0000 0.0000 7.3173 -12.9417 20.2830 -4.5546 7.1250 -0.0000 -0.0000 9.9410 -9.4601 8.3012
0.00 0.00 0.00 -6.6601 8.1402 3.3302 0.0000 0.0000 0.0000 -10.1505 -8.7843 -21.3421 12.5707 18.6216 67.7868 0.0313 -7.7195 -6.0622 0.4808 4.4466 12.3365 0.0000 0.0000 0.0000 32.8430 2.8977 -7.0603 -0.7225 -5.4316 15.1438 -0.3480 -5.7115 -14.7036 -1.3598 -7.3810 20.8492 2.5865 -0.5010 8.9986 4.4506 -0.1092 -0.9204 3.2299 -0.0582 -6.0252 -1.5121 -1.0433 -17.0984 -3.2145 -0.2447 21.0927 -0.8926 -0.6000 9.4940 0.0000 -0.0000 0.0000 -85.8284 2.5344 12.8798 15.8629 -25.3345 -3.5871 -0.0000 -0.0000 5.7074 0.2766 38.8780 0.1736 -7.1250 0.0000 -0.0000 -43.0781 63.6522 -21.4131 0.0000 -0.0000 0.0000 87.5128 -5.6897 -31.9390 -5.4824 9.3962 -0.4509 0.0000 0.0000 17.0858 -14.6099 13.6207 -3.5127 7.1250 -0.0000 -0.0000 8.7590 -16.0289 6.0722
